<svg width="100" height="100" viewBox="0 0 168 168" xmlns="http://www.w3.org/2000/svg">
  <title>PlayMySong Logo</title>
  <rect width="100%" height="100%" rx="84" ry="84" fill="#1DB954"/>
  <g transform="translate(20, 20) scale(0.8)">
    <circle cx="84" cy="84" r="84" fill="#1DB954"/>
    <path d="M122.3 105.8c-2-3.3-6.4-4.4-9.7-2.4-26.6 15.4-60 18.8-99.2 9.9-3.7-.9-7.6 1.3-8.4 5-1 3.7 1.3 7.6 5 8.4 42.1 9.4 78.4 5.7 108.1-11.6 3.3-2 4.4-6.4 2.4-9.7zm11.4-22.7c-2.5-4.1-8-5.5-12.1-3-32.5 19-82.2 24.5-120.4 12.9-4.5-1.4-9.4 1.1-10.8 5.6-1.4 4.5 1.1 9.4 5.6 10.8 42.8 12.5 96.8 6.5 134.7-14.6 4.1-2.4 5.5-8 3-12.1zm-28.8-37.7c-37.1 0-76.3 12.7-101.7 26.2-4.3 2.4-5.7 7.8-3.3 12.1 2.4 4.3 7.8 5.7 12.1 3.3 22.5-12.8 58.9-24.4 93-24.4 23.8 0 47.2 4.1 64.5 11.8 4.6 2 10.1-.3 12.1-5 2-4.6-.3-10.1-5-12.1-20-8.4-45.3-12.9-71.7-12.9z" fill="#fff"/>
  </g>
  <text x="50%" y="90%" font-family="Arial, Helvetica, sans-serif" font-size="24" fill="#fff" text-anchor="middle">PlayMySong</text>
</svg>
